<svg width="809" height="732" viewBox="0 0 809 732" fill="none" xmlns="http://www.w3.org/2000/svg">
<g filter="url(#filter0_d_1_5)">
<path d="M719.13 45.4371C679.584 15.2892 635.946 0 589.427 0C530.732 0 467.331 25.0515 404.978 72.6891C342.625 25.0515 279.224 0 220.528 0C174.009 0 130.372 15.2892 90.8257 45.4371C32.9658 89.5533 4.09479 145.224 5 210.899C8.11304 435.793 373.314 701.159 388.857 712.346L404.978 723.948L421.099 712.346C436.646 701.159 801.846 435.793 804.956 210.899C805.861 145.224 776.99 89.5533 719.13 45.4371Z" fill="#EC0B0B"/>
</g>
<defs>
<filter id="filter0_d_1_5" x="0.979355" y="0" width="807.997" height="731.948" filterUnits="userSpaceOnUse" color-interpolation-filters="sRGB">
<feFlood flood-opacity="0" result="BackgroundImageFix"/>
<feColorMatrix in="SourceAlpha" type="matrix" values="0 0 0 0 0 0 0 0 0 0 0 0 0 0 0 0 0 0 127 0" result="hardAlpha"/>
<feOffset dy="4"/>
<feGaussianBlur stdDeviation="2"/>
<feComposite in2="hardAlpha" operator="out"/>
<feColorMatrix type="matrix" values="0 0 0 0 0 0 0 0 0 0 0 0 0 0 0 0 0 0 0.25 0"/>
<feBlend mode="normal" in2="BackgroundImageFix" result="effect1_dropShadow_1_5"/>
<feBlend mode="normal" in="SourceGraphic" in2="effect1_dropShadow_1_5" result="shape"/>
</filter>
</defs>
</svg>
